<svg width="36" height="43" viewBox="0 0 36 43" fill="none" xmlns="http://www.w3.org/2000/svg">
<path d="M28.372 14.7949L16.1918 2.73633C16.1041 2.64928 16 2.58021 15.8853 2.53308C15.7706 2.48596 15.6477 2.4617 15.5235 2.4617C15.3994 2.4617 15.2764 2.48596 15.1618 2.53308C15.0471 2.58021 14.9429 2.64928 14.8552 2.73633L2.67507 14.7949C2.32022 15.1465 2.11914 15.624 2.11914 16.1221C2.11914 17.1563 2.96782 17.9971 4.01166 17.9971H5.29503V26.6016C5.29503 27.1201 5.71789 27.5391 6.24129 27.5391H13.631V20.9766H16.9429V27.5391H24.8058C25.3292 27.5391 25.752 27.1201 25.752 26.6016V17.9971H27.0354C27.5381 17.9971 28.0201 17.8008 28.3749 17.4463C29.1112 16.7139 29.1112 15.5274 28.372 14.7949Z" fill="#FCF2D9"/>
<path d="M11.6319 33.7273V41H10.3144V33.7273H11.6319ZM14.2872 37.804V41H13.0017V35.5455H14.2304V36.4723H14.2943C14.4198 36.1669 14.6199 35.9242 14.8945 35.7443C15.1715 35.5644 15.5136 35.4744 15.9208 35.4744C16.2972 35.4744 16.6251 35.5549 16.9044 35.7159C17.1862 35.8769 17.404 36.1101 17.5578 36.4155C17.7141 36.7209 17.791 37.0914 17.7887 37.527V41H16.5032V37.7259C16.5032 37.3613 16.4085 37.076 16.2191 36.87C16.032 36.6641 15.7728 36.5611 15.4414 36.5611C15.2165 36.5611 15.0164 36.6108 14.8412 36.7102C14.6684 36.8073 14.5323 36.9482 14.4328 37.1328C14.3358 37.3175 14.2872 37.5412 14.2872 37.804ZM19.0955 41V35.5455H20.381V41H19.0955ZM19.7418 34.7713C19.5382 34.7713 19.363 34.7038 19.2162 34.5689C19.0694 34.4316 18.9961 34.267 18.9961 34.0753C18.9961 33.8812 19.0694 33.7166 19.2162 33.5817C19.363 33.4444 19.5382 33.3757 19.7418 33.3757C19.9478 33.3757 20.1229 33.4444 20.2674 33.5817C20.4141 33.7166 20.4875 33.8812 20.4875 34.0753C20.4875 34.267 20.4141 34.4316 20.2674 34.5689C20.1229 34.7038 19.9478 34.7713 19.7418 34.7713ZM24.0822 41.1065C23.5377 41.1065 23.0701 40.987 22.6795 40.7479C22.2912 40.5088 21.9917 40.1785 21.781 39.7571C21.5727 39.3333 21.4685 38.8456 21.4685 38.294C21.4685 37.7401 21.5751 37.2512 21.7881 36.8274C22.0012 36.4013 22.3019 36.0698 22.6901 35.8331C23.0807 35.594 23.5424 35.4744 24.0751 35.4744C24.5178 35.4744 24.9096 35.5561 25.2505 35.7195C25.5938 35.8804 25.8672 36.1089 26.0708 36.4048C26.2744 36.6984 26.3904 37.0417 26.4188 37.4347H25.1901C25.1404 37.1719 25.022 36.9529 24.835 36.7777C24.6503 36.6001 24.403 36.5114 24.0928 36.5114C23.83 36.5114 23.5992 36.5824 23.4003 36.7244C23.2015 36.8641 23.0464 37.0653 22.9351 37.3281C22.8262 37.5909 22.7718 37.9058 22.7718 38.2727C22.7718 38.6444 22.8262 38.964 22.9351 39.2315C23.0441 39.4967 23.1967 39.7015 23.3932 39.8459C23.5921 39.9879 23.8253 40.0589 24.0928 40.0589C24.2822 40.0589 24.4515 40.0234 24.6006 39.9524C24.7521 39.879 24.8788 39.7737 24.9806 39.6364C25.0824 39.4991 25.1522 39.3321 25.1901 39.1357H26.4188C26.388 39.5215 26.2744 39.8636 26.0779 40.1619C25.8814 40.4579 25.6139 40.6899 25.2753 40.858C24.9368 41.0237 24.5391 41.1065 24.0822 41.1065ZM27.4744 41V35.5455H28.7599V41H27.4744ZM28.1207 34.7713C27.9171 34.7713 27.7419 34.7038 27.5951 34.5689C27.4483 34.4316 27.375 34.267 27.375 34.0753C27.375 33.8812 27.4483 33.7166 27.5951 33.5817C27.7419 33.4444 27.9171 33.3757 28.1207 33.3757C28.3267 33.3757 28.5019 33.4444 28.6463 33.5817C28.793 33.7166 28.8664 33.8812 28.8664 34.0753C28.8664 34.267 28.793 34.4316 28.6463 34.5689C28.5019 34.7038 28.3267 34.7713 28.1207 34.7713ZM32.4611 41.1065C31.9284 41.1065 31.4668 40.9893 31.0761 40.755C30.6855 40.5206 30.3825 40.1927 30.167 39.7713C29.954 39.3499 29.8474 38.8575 29.8474 38.294C29.8474 37.7306 29.954 37.237 30.167 36.8132C30.3825 36.3894 30.6855 36.0604 31.0761 35.826C31.4668 35.5916 31.9284 35.4744 32.4611 35.4744C32.9937 35.4744 33.4554 35.5916 33.846 35.826C34.2366 36.0604 34.5385 36.3894 34.7516 36.8132C34.967 37.237 35.0747 37.7306 35.0747 38.294C35.0747 38.8575 34.967 39.3499 34.7516 39.7713C34.5385 40.1927 34.2366 40.5206 33.846 40.755C33.4554 40.9893 32.9937 41.1065 32.4611 41.1065ZM32.4682 40.0767C32.757 40.0767 32.9985 39.9974 33.1926 39.8388C33.3867 39.6778 33.5311 39.4624 33.6258 39.1925C33.7229 38.9226 33.7714 38.6219 33.7714 38.2905C33.7714 37.9567 33.7229 37.6548 33.6258 37.3849C33.5311 37.1127 33.3867 36.8961 33.1926 36.7351C32.9985 36.5741 32.757 36.4936 32.4682 36.4936C32.1722 36.4936 31.926 36.5741 31.7295 36.7351C31.5354 36.8961 31.3898 37.1127 31.2927 37.3849C31.1981 37.6548 31.1507 37.9567 31.1507 38.2905C31.1507 38.6219 31.1981 38.9226 31.2927 39.1925C31.3898 39.4624 31.5354 39.6778 31.7295 39.8388C31.926 39.9974 32.1722 40.0767 32.4682 40.0767Z" fill="#FCF2D9"/>
</svg>
