<svg width="63" height="38" viewBox="0 0 63 38" fill="none" xmlns="http://www.w3.org/2000/svg">
<path d="M7.53351 31.0923H6.42555C6.38294 30.8556 6.30363 30.6473 6.18763 30.4673C6.07162 30.2874 5.92958 30.1347 5.76149 30.0092C5.5934 29.8838 5.40519 29.7891 5.19686 29.7251C4.99089 29.6612 4.77191 29.6293 4.5399 29.6293C4.12086 29.6293 3.74563 29.7346 3.41419 29.9453C3.08512 30.156 2.8247 30.465 2.63294 30.8722C2.44354 31.2794 2.34885 31.7765 2.34885 32.3636C2.34885 32.9555 2.44354 33.455 2.63294 33.8622C2.8247 34.2694 3.0863 34.5772 3.41774 34.7855C3.74918 34.9938 4.12205 35.098 4.53635 35.098C4.76599 35.098 4.98379 35.0672 5.18976 35.0057C5.39809 34.9418 5.5863 34.8482 5.75439 34.7251C5.92247 34.602 6.06452 34.4517 6.18052 34.2741C6.29889 34.0942 6.38057 33.8883 6.42555 33.6562L7.53351 33.6598C7.47432 34.0173 7.3595 34.3464 7.18905 34.647C7.02096 34.9453 6.80434 35.2034 6.53919 35.4212C6.2764 35.6366 5.97574 35.8035 5.6372 35.9219C5.29866 36.0402 4.92934 36.0994 4.52924 36.0994C3.89951 36.0994 3.33843 35.9503 2.84601 35.652C2.35358 35.3513 1.96532 34.9216 1.68123 34.3629C1.39951 33.8042 1.25865 33.1378 1.25865 32.3636C1.25865 31.5871 1.40069 30.9207 1.68478 30.3643C1.96888 29.8056 2.35713 29.3771 2.84956 29.0788C3.34198 28.7782 3.90188 28.6278 4.52924 28.6278C4.91513 28.6278 5.27498 28.6835 5.60879 28.7947C5.94496 28.9036 6.24681 29.0646 6.51433 29.2777C6.78185 29.4884 7.0032 29.7464 7.17839 30.0518C7.35358 30.3549 7.47195 30.7017 7.53351 31.0923ZM11.0589 36.1101C10.5475 36.1101 10.1013 35.9929 9.72012 35.7585C9.33896 35.5241 9.04303 35.1963 8.83233 34.7749C8.62163 34.3535 8.51628 33.861 8.51628 33.2976C8.51628 32.7318 8.62163 32.237 8.83233 31.8132C9.04303 31.3894 9.33896 31.0604 9.72012 30.826C10.1013 30.5916 10.5475 30.4744 11.0589 30.4744C11.5703 30.4744 12.0165 30.5916 12.3977 30.826C12.7788 31.0604 13.0748 31.3894 13.2855 31.8132C13.4962 32.237 13.6015 32.7318 13.6015 33.2976C13.6015 33.861 13.4962 34.3535 13.2855 34.7749C13.0748 35.1963 12.7788 35.5241 12.3977 35.7585C12.0165 35.9929 11.5703 36.1101 11.0589 36.1101ZM11.0624 35.2188C11.3939 35.2188 11.6685 35.1312 11.8863 34.956C12.1041 34.7808 12.2651 34.5476 12.3693 34.2564C12.4758 33.9652 12.5291 33.6444 12.5291 33.294C12.5291 32.946 12.4758 32.6264 12.3693 32.3352C12.2651 32.0417 12.1041 31.8061 11.8863 31.6286C11.6685 31.451 11.3939 31.3622 11.0624 31.3622C10.7286 31.3622 10.4517 31.451 10.2315 31.6286C10.0137 31.8061 9.85151 32.0417 9.74498 32.3352C9.64081 32.6264 9.58873 32.946 9.58873 33.294C9.58873 33.6444 9.64081 33.9652 9.74498 34.2564C9.85151 34.5476 10.0137 34.7808 10.2315 34.956C10.4517 35.1312 10.7286 35.2188 11.0624 35.2188ZM14.7867 36V30.5455H15.8059V31.4332H15.8733C15.987 31.1326 16.1728 30.8982 16.4309 30.7301C16.6889 30.5597 16.9979 30.4744 17.3577 30.4744C17.7223 30.4744 18.0277 30.5597 18.2739 30.7301C18.5225 30.9006 18.706 31.1349 18.8243 31.4332H18.8812C19.0114 31.142 19.2185 30.91 19.5026 30.7372C19.7867 30.562 20.1252 30.4744 20.5182 30.4744C21.013 30.4744 21.4167 30.6295 21.7292 30.9396C22.044 31.2498 22.2015 31.7173 22.2015 32.3423V36H21.1397V32.4418C21.1397 32.0724 21.0391 31.8049 20.8378 31.6392C20.6366 31.4735 20.3963 31.3906 20.117 31.3906C19.7713 31.3906 19.5026 31.4972 19.3108 31.7102C19.1191 31.9209 19.0232 32.192 19.0232 32.5234V36H17.965V32.3743C17.965 32.0784 17.8726 31.8404 17.688 31.6605C17.5033 31.4806 17.263 31.3906 16.9671 31.3906C16.7659 31.3906 16.58 31.4439 16.4096 31.5504C16.2415 31.6546 16.1054 31.8002 16.0012 31.9872C15.8994 32.1742 15.8485 32.3909 15.8485 32.6371V36H14.7867ZM25.9754 36.1101C25.438 36.1101 24.9752 35.9953 24.587 35.7656C24.2011 35.5336 23.9028 35.2081 23.6921 34.7891C23.4837 34.3677 23.3796 33.8741 23.3796 33.3082C23.3796 32.7495 23.4837 32.2571 23.6921 31.831C23.9028 31.4048 24.1963 31.0722 24.5727 30.8331C24.9515 30.594 25.3942 30.4744 25.9009 30.4744C26.2086 30.4744 26.5069 30.5253 26.7958 30.6271C27.0846 30.7289 27.3438 30.8887 27.5735 31.1065C27.8031 31.3243 27.9842 31.6072 28.1168 31.9553C28.2494 32.3009 28.3156 32.7211 28.3156 33.2159V33.5923H23.9797V32.7969H27.2752C27.2752 32.5175 27.2183 32.2701 27.1047 32.0547C26.9911 31.8369 26.8313 31.6652 26.6253 31.5398C26.4217 31.4143 26.1826 31.3516 25.908 31.3516C25.6097 31.3516 25.3493 31.425 25.1267 31.5717C24.9066 31.7161 24.7361 31.9055 24.6154 32.1399C24.497 32.3719 24.4378 32.6241 24.4378 32.8963V33.5178C24.4378 33.8823 24.5017 34.1925 24.6296 34.4482C24.7598 34.7038 24.9409 34.8991 25.1729 35.0341C25.4049 35.1667 25.676 35.233 25.9861 35.233C26.1873 35.233 26.3708 35.2045 26.5365 35.1477C26.7022 35.0885 26.8455 35.0009 26.9662 34.8849C27.087 34.7689 27.1793 34.6257 27.2432 34.4553L28.2482 34.6364C28.1677 34.9323 28.0233 35.1915 27.8149 35.4141C27.609 35.6342 27.3497 35.8059 27.0372 35.929C26.7271 36.0497 26.3732 36.1101 25.9754 36.1101ZM30.5555 32.7614V36H29.4937V30.5455H30.5129V31.4332H30.5804C30.7059 31.1444 30.9024 30.9124 31.1699 30.7372C31.4398 30.562 31.7795 30.4744 32.189 30.4744C32.5607 30.4744 32.8863 30.5526 33.1656 30.7088C33.445 30.8627 33.6616 31.0923 33.8155 31.3977C33.9693 31.7031 34.0463 32.0807 34.0463 32.5305V36H32.9845V32.6584C32.9845 32.263 32.8815 31.9541 32.6756 31.7315C32.4696 31.5066 32.1867 31.3942 31.8268 31.3942C31.5806 31.3942 31.3616 31.4474 31.1699 31.554C30.9805 31.6605 30.8301 31.8168 30.7189 32.0227C30.61 32.2263 30.5555 32.4725 30.5555 32.7614ZM38.0165 30.5455V31.3977H35.0371V30.5455H38.0165ZM35.8361 29.2386H36.8979V34.3984C36.8979 34.6044 36.9286 34.7595 36.9902 34.8636C37.0517 34.9654 37.131 35.0353 37.2281 35.0732C37.3275 35.1087 37.4353 35.1264 37.5513 35.1264C37.6365 35.1264 37.7111 35.1205 37.775 35.1087C37.8389 35.0968 37.8886 35.0874 37.9241 35.0803L38.1159 35.9574C38.0543 35.9811 37.9667 36.0047 37.8531 36.0284C37.7395 36.0545 37.5974 36.0687 37.427 36.071C37.1476 36.0758 36.8872 36.026 36.6457 35.9219C36.4042 35.8177 36.2089 35.6567 36.0598 35.4389C35.9106 35.2211 35.8361 34.9477 35.8361 34.6186V29.2386ZM40.7784 36.1207C40.4327 36.1207 40.1202 36.0568 39.8409 35.929C39.5615 35.7988 39.3401 35.6106 39.1768 35.3643C39.0158 35.1181 38.9353 34.8163 38.9353 34.4588C38.9353 34.151 38.9945 33.8977 39.1129 33.6989C39.2312 33.5 39.391 33.3426 39.5923 33.2266C39.7935 33.1106 40.0184 33.023 40.267 32.9638C40.5156 32.9046 40.7689 32.8596 41.0269 32.8288C41.3536 32.791 41.6188 32.7602 41.8224 32.7365C42.026 32.7105 42.174 32.669 42.2663 32.6122C42.3586 32.5554 42.4048 32.4631 42.4048 32.3352V32.3104C42.4048 32.0002 42.3172 31.7599 42.142 31.5895C41.9692 31.419 41.7111 31.3338 41.3678 31.3338C41.0104 31.3338 40.7286 31.4131 40.5227 31.5717C40.3191 31.728 40.1782 31.902 40.1001 32.0938L39.1022 31.8665C39.2206 31.535 39.3934 31.2675 39.6207 31.0639C39.8503 30.858 40.1143 30.7088 40.4126 30.6165C40.7109 30.5218 41.0246 30.4744 41.3536 30.4744C41.5714 30.4744 41.8023 30.5005 42.0461 30.5526C42.2923 30.6023 42.522 30.6946 42.735 30.8295C42.9505 30.9645 43.1268 31.1574 43.2642 31.4084C43.4015 31.657 43.4701 31.9801 43.4701 32.3778V36H42.4332V35.2543H42.3906C42.3219 35.3916 42.2189 35.5265 42.0816 35.6591C41.9443 35.7917 41.7679 35.9018 41.5525 35.9893C41.3371 36.0769 41.079 36.1207 40.7784 36.1207ZM41.0092 35.2685C41.3027 35.2685 41.5537 35.2105 41.762 35.0945C41.9727 34.9785 42.1325 34.8269 42.2414 34.6399C42.3527 34.4505 42.4083 34.2481 42.4083 34.0327V33.3295C42.3704 33.3674 42.2971 33.4029 42.1882 33.4361C42.0816 33.4669 41.9597 33.4941 41.8224 33.5178C41.6851 33.5391 41.5513 33.5592 41.4211 33.5781C41.2909 33.5947 41.182 33.6089 41.0944 33.6207C40.8884 33.6468 40.7002 33.6906 40.5298 33.7521C40.3617 33.8137 40.2267 33.9025 40.1249 34.0185C40.0255 34.1321 39.9758 34.2836 39.9758 34.473C39.9758 34.7358 40.0729 34.9347 40.267 35.0696C40.4611 35.2022 40.7085 35.2685 41.0092 35.2685ZM44.8844 36V30.5455H45.9106V31.4119H45.9675C46.0669 31.1184 46.2421 30.8875 46.493 30.7195C46.7463 30.549 47.0328 30.4638 47.3524 30.4638C47.4187 30.4638 47.4968 30.4661 47.5868 30.4709C47.6791 30.4756 47.7513 30.4815 47.8034 30.4886V31.5043C47.7608 31.4924 47.685 31.4794 47.5761 31.4652C47.4672 31.4486 47.3583 31.4403 47.2494 31.4403C46.9985 31.4403 46.7747 31.4936 46.5782 31.6001C46.3841 31.7043 46.2302 31.8499 46.1166 32.0369C46.003 32.2216 45.9461 32.4323 45.9461 32.669V36H44.8844ZM48.7222 36V30.5455H49.784V36H48.7222ZM49.2585 29.7038C49.0738 29.7038 48.9152 29.6423 48.7826 29.5192C48.6524 29.3937 48.5873 29.2446 48.5873 29.0717C48.5873 28.8965 48.6524 28.7474 48.7826 28.6243C48.9152 28.4988 49.0738 28.4361 49.2585 28.4361C49.4431 28.4361 49.6006 28.4988 49.7308 28.6243C49.8633 28.7474 49.9296 28.8965 49.9296 29.0717C49.9296 29.2446 49.8633 29.3937 49.7308 29.5192C49.6006 29.6423 49.4431 29.7038 49.2585 29.7038ZM53.5101 36.1101C52.9987 36.1101 52.5524 35.9929 52.1713 35.7585C51.7901 35.5241 51.4942 35.1963 51.2835 34.7749C51.0728 34.3535 50.9675 33.861 50.9675 33.2976C50.9675 32.7318 51.0728 32.237 51.2835 31.8132C51.4942 31.3894 51.7901 31.0604 52.1713 30.826C52.5524 30.5916 52.9987 30.4744 53.5101 30.4744C54.0214 30.4744 54.4677 30.5916 54.8488 30.826C55.23 31.0604 55.5259 31.3894 55.7366 31.8132C55.9473 32.237 56.0527 32.7318 56.0527 33.2976C56.0527 33.861 55.9473 34.3535 55.7366 34.7749C55.5259 35.1963 55.23 35.5241 54.8488 35.7585C54.4677 35.9929 54.0214 36.1101 53.5101 36.1101ZM53.5136 35.2188C53.8451 35.2188 54.1197 35.1312 54.3375 34.956C54.5553 34.7808 54.7163 34.5476 54.8204 34.2564C54.927 33.9652 54.9802 33.6444 54.9802 33.294C54.9802 32.946 54.927 32.6264 54.8204 32.3352C54.7163 32.0417 54.5553 31.8061 54.3375 31.6286C54.1197 31.451 53.8451 31.3622 53.5136 31.3622C53.1798 31.3622 52.9028 31.451 52.6827 31.6286C52.4648 31.8061 52.3027 32.0417 52.1961 32.3352C52.092 32.6264 52.0399 32.946 52.0399 33.294C52.0399 33.6444 52.092 33.9652 52.1961 34.2564C52.3027 34.5476 52.4648 34.7808 52.6827 34.956C52.9028 35.1312 53.1798 35.2188 53.5136 35.2188ZM61.3252 31.8771L60.3629 32.0476C60.3226 31.9245 60.2587 31.8073 60.1711 31.696C60.0859 31.5848 59.9699 31.4936 59.8231 31.4226C59.6763 31.3516 59.4928 31.3161 59.2727 31.3161C58.972 31.3161 58.7211 31.3835 58.5198 31.5185C58.3186 31.651 58.218 31.8227 58.218 32.0334C58.218 32.2157 58.2855 32.3625 58.4204 32.4737C58.5553 32.585 58.7731 32.6761 59.0738 32.7472L59.9403 32.946C60.4422 33.062 60.8162 33.2408 61.0624 33.4822C61.3087 33.7237 61.4318 34.0374 61.4318 34.4233C61.4318 34.75 61.3371 35.0412 61.1477 35.2969C60.9606 35.5502 60.699 35.7491 60.3629 35.8935C60.0291 36.0379 59.642 36.1101 59.2017 36.1101C58.5909 36.1101 58.0925 35.9799 57.7066 35.7195C57.3207 35.4567 57.084 35.0838 56.9964 34.6009L58.0227 34.4446C58.0866 34.7121 58.218 34.9145 58.4168 35.0518C58.6157 35.1868 58.8749 35.2543 59.1945 35.2543C59.5426 35.2543 59.8207 35.1821 60.0291 35.0376C60.2374 34.8909 60.3416 34.7121 60.3416 34.5014C60.3416 34.331 60.2776 34.1877 60.1498 34.0717C60.0243 33.9557 59.8314 33.8681 59.571 33.8089L58.6477 33.6065C58.1387 33.4905 57.7623 33.3059 57.5184 33.0526C57.2769 32.7992 57.1562 32.4785 57.1562 32.0902C57.1562 31.7682 57.2462 31.4865 57.4261 31.245C57.606 31.0036 57.8546 30.8153 58.1718 30.6804C58.4891 30.5431 58.8525 30.4744 59.262 30.4744C59.8515 30.4744 60.3155 30.6023 60.6541 30.858C60.9926 31.1113 61.2163 31.451 61.3252 31.8771Z" fill="#FCF2D9"/>
<path opacity="0.3" d="M17 7.2466C17 3.28326 20.1729 0 24.1741 0H36.4726C40.4738 0 43.6467 3.28326 43.6467 7.2466V13.4104C43.6467 17.3737 40.4738 20.657 36.4726 20.657H30.8159L26.9054 25.4243C25.9336 26.609 24.1741 25.8043 24.1741 24.4666V20.6986C24.1741 20.6767 24.1671 20.6636 24.1616 20.657C20.1663 20.6501 17 17.3696 17 13.4104V7.2466Z" fill="#FCF2D9"/>
<path d="M23.1489 7.99623C23.1489 7.44421 23.6078 6.9967 24.1738 6.9967H36.4723C37.0383 6.9967 37.4972 7.44421 37.4972 7.99623C37.4972 8.54826 37.0383 8.99576 36.4723 8.99576H24.1738C23.6078 8.99576 23.1489 8.54826 23.1489 7.99623Z" fill="#FCF2D9"/>
<path d="M23.1489 11.9944C23.1489 11.4423 23.6078 10.9948 24.1738 10.9948H32.3728C32.9388 10.9948 33.3977 11.4423 33.3977 11.9944C33.3977 12.5464 32.9388 12.9939 32.3728 12.9939H24.1738C23.6078 12.9939 23.1489 12.5464 23.1489 11.9944Z" fill="#FCF2D9"/>
</svg>
