<svg width="54" height="43" viewBox="0 0 54 43" fill="none" xmlns="http://www.w3.org/2000/svg">
<path d="M11.6919 8.75H21.7854V11.25H11.6919V8.75ZM11.6919 13.75H21.7854V16.25H11.6919V13.75ZM18.0003 18.75H21.7854V21.25H18.0003V18.75Z" fill="#FCF2D9"/>
<path d="M30.617 13.75H26.8319V5C26.8319 4.66848 26.699 4.35054 26.4624 4.11612C26.2258 3.8817 25.9049 3.75 25.5703 3.75H7.9067C7.57208 3.75 7.25117 3.8817 7.01456 4.11612C6.77795 4.35054 6.64502 4.66848 6.64502 5V22.5C6.64502 24.5675 8.34324 26.25 10.4301 26.25H28.0936C30.1804 26.25 31.8787 24.5675 31.8787 22.5V15C31.8787 14.6685 31.7457 14.3505 31.5091 14.1161C31.2725 13.8817 30.9516 13.75 30.617 13.75ZM10.4301 23.75C10.0954 23.75 9.77453 23.6183 9.53792 23.3839C9.30131 23.1495 9.16838 22.8315 9.16838 22.5V6.25H24.3086V22.5C24.3086 22.9387 24.3855 23.36 24.5243 23.75H10.4301ZM29.3553 22.5C29.3553 22.8315 29.2224 23.1495 28.9858 23.3839C28.7492 23.6183 28.4282 23.75 28.0936 23.75C27.759 23.75 27.4381 23.6183 27.2015 23.3839C26.9649 23.1495 26.8319 22.8315 26.8319 22.5V16.25H29.3553V22.5Z" fill="#FCF2D9"/>
<path d="M5.25157 35.6378C5.21369 35.3016 5.05744 35.0412 4.78282 34.8565C4.5082 34.6695 4.16255 34.576 3.74589 34.576C3.44759 34.576 3.18954 34.6233 2.97174 34.718C2.75394 34.8104 2.58467 34.9382 2.46393 35.1016C2.34556 35.2625 2.28637 35.446 2.28637 35.652C2.28637 35.8248 2.32662 35.974 2.40711 36.0994C2.48997 36.2249 2.59769 36.3303 2.73026 36.4155C2.86521 36.4983 3.00962 36.5682 3.1635 36.625C3.31738 36.6795 3.46535 36.7244 3.60739 36.7599L4.31762 36.9446C4.54963 37.0014 4.78755 37.0784 5.0314 37.1754C5.27524 37.2725 5.50133 37.4003 5.70967 37.5589C5.918 37.7176 6.08609 37.9141 6.21393 38.1484C6.34414 38.3828 6.40924 38.6634 6.40924 38.9901C6.40924 39.402 6.30271 39.7678 6.08964 40.0874C5.87894 40.407 5.57236 40.6591 5.16989 40.8438C4.7698 41.0284 4.28566 41.1207 3.71748 41.1207C3.17297 41.1207 2.70185 41.0343 2.30413 40.8615C1.9064 40.6887 1.59508 40.4437 1.37018 40.1264C1.14527 39.8068 1.02098 39.428 0.997308 38.9901H2.09816C2.11947 39.2528 2.20469 39.4718 2.35384 39.647C2.50536 39.8198 2.6983 39.9489 2.93268 40.0341C3.16942 40.117 3.42865 40.1584 3.71038 40.1584C4.02051 40.1584 4.29631 40.1098 4.53779 40.0128C4.78164 39.9134 4.9734 39.776 5.11308 39.6009C5.25275 39.4233 5.32259 39.2161 5.32259 38.9794C5.32259 38.764 5.26104 38.5876 5.13793 38.4503C5.01719 38.313 4.85266 38.1993 4.64433 38.1094C4.43836 38.0194 4.20517 37.9401 3.94475 37.8714L3.08538 37.6371C2.50299 37.4785 2.04134 37.2453 1.70043 36.9375C1.36189 36.6297 1.19262 36.2225 1.19262 35.7159C1.19262 35.2969 1.30626 34.9311 1.53353 34.6186C1.7608 34.3061 2.06857 34.0634 2.45683 33.8906C2.84508 33.7154 3.28306 33.6278 3.77075 33.6278C4.26317 33.6278 4.69759 33.7143 5.07401 33.8871C5.4528 34.0599 5.7511 34.2978 5.9689 34.6009C6.1867 34.9015 6.30034 35.2472 6.30981 35.6378H5.25157ZM11.0905 38.7379V35.5455H12.1559V41H11.1118V40.0554H11.055C10.9295 40.3466 10.7283 40.5893 10.4513 40.7834C10.1767 40.9751 9.83461 41.071 9.42504 41.071C9.07466 41.071 8.76453 40.9941 8.49465 40.8402C8.22713 40.6839 8.01643 40.4531 7.86254 40.1477C7.71103 39.8423 7.63527 39.4647 7.63527 39.0149V35.5455H8.69706V38.8871C8.69706 39.2588 8.80004 39.5547 9.00601 39.7749C9.21197 39.995 9.47949 40.1051 9.80857 40.1051C10.0074 40.1051 10.2051 40.0554 10.4016 39.956C10.6005 39.8565 10.765 39.7062 10.8952 39.505C11.0278 39.3037 11.0929 39.0481 11.0905 38.7379ZM15.8801 41.1101C15.3522 41.1101 14.8976 40.9905 14.5165 40.7514C14.1377 40.5099 13.8465 40.1773 13.6429 39.7536C13.4393 39.3298 13.3375 38.8445 13.3375 38.2976C13.3375 37.7436 13.4417 37.2547 13.65 36.831C13.8583 36.4048 14.1519 36.0722 14.5307 35.8331C14.9095 35.594 15.3557 35.4744 15.8695 35.4744C16.2838 35.4744 16.6531 35.5514 16.9774 35.7053C17.3018 35.8568 17.5634 36.0698 17.7622 36.3445C17.9635 36.6191 18.083 36.9399 18.1209 37.3068H17.0875C17.0307 37.0511 16.9005 36.831 16.6969 36.6463C16.4957 36.4616 16.2258 36.3693 15.8872 36.3693C15.5913 36.3693 15.3321 36.4474 15.1095 36.6037C14.8894 36.7576 14.7177 36.9777 14.5946 37.2642C14.4715 37.5483 14.41 37.8845 14.41 38.2727C14.41 38.6705 14.4703 39.0137 14.5911 39.3026C14.7118 39.5914 14.8823 39.8151 15.1024 39.9737C15.325 40.1323 15.5866 40.2116 15.8872 40.2116C16.0885 40.2116 16.2707 40.175 16.4341 40.1016C16.5998 40.0258 16.7383 39.9181 16.8496 39.7784C16.9632 39.6387 17.0425 39.4706 17.0875 39.2741H18.1209C18.083 39.6269 17.9682 39.9418 17.7764 40.2188C17.5847 40.4957 17.3278 40.7135 17.0058 40.8722C16.6862 41.0308 16.311 41.1101 15.8801 41.1101ZM22.7116 38.7379V35.5455H23.777V41H22.7329V40.0554H22.6761C22.5506 40.3466 22.3494 40.5893 22.0724 40.7834C21.7978 40.9751 21.4557 41.071 21.0461 41.071C20.6958 41.071 20.3856 40.9941 20.1157 40.8402C19.8482 40.6839 19.6375 40.4531 19.4836 40.1477C19.3321 39.8423 19.2564 39.4647 19.2564 39.0149V35.5455H20.3182V38.8871C20.3182 39.2588 20.4211 39.5547 20.6271 39.7749C20.8331 39.995 21.1006 40.1051 21.4297 40.1051C21.6285 40.1051 21.8262 40.0554 22.0227 39.956C22.2216 39.8565 22.3861 39.7062 22.5163 39.505C22.6489 39.3037 22.714 39.0481 22.7116 38.7379ZM25.2036 41V35.5455H26.2299V36.4119H26.2867C26.3862 36.1184 26.5613 35.8875 26.8123 35.7195C27.0656 35.549 27.3521 35.4638 27.6717 35.4638C27.738 35.4638 27.8161 35.4661 27.906 35.4709C27.9984 35.4756 28.0706 35.4815 28.1227 35.4886V36.5043C28.08 36.4924 28.0043 36.4794 27.8954 36.4652C27.7865 36.4486 27.6776 36.4403 27.5687 36.4403C27.3177 36.4403 27.094 36.4936 26.8975 36.6001C26.7034 36.7043 26.5495 36.8499 26.4359 37.0369C26.3222 37.2216 26.2654 37.4323 26.2654 37.669V41H25.2036ZM33.1289 36.8771L32.1665 37.0476C32.1263 36.9245 32.0624 36.8073 31.9748 36.696C31.8895 36.5848 31.7735 36.4936 31.6267 36.4226C31.48 36.3516 31.2965 36.3161 31.0763 36.3161C30.7757 36.3161 30.5247 36.3835 30.3235 36.5185C30.1222 36.651 30.0216 36.8227 30.0216 37.0334C30.0216 37.2157 30.0891 37.3625 30.224 37.4737C30.359 37.585 30.5768 37.6761 30.8775 37.7472L31.7439 37.946C32.2458 38.062 32.6199 38.2408 32.8661 38.4822C33.1123 38.7237 33.2354 39.0374 33.2354 39.4233C33.2354 39.75 33.1407 40.0412 32.9513 40.2969C32.7643 40.5502 32.5027 40.7491 32.1665 40.8935C31.8327 41.0379 31.4456 41.1101 31.0053 41.1101C30.3945 41.1101 29.8962 40.9799 29.5103 40.7195C29.1244 40.4567 28.8876 40.0838 28.8 39.6009L29.8263 39.4446C29.8902 39.7121 30.0216 39.9145 30.2205 40.0518C30.4194 40.1868 30.6786 40.2543 30.9982 40.2543C31.3462 40.2543 31.6244 40.1821 31.8327 40.0376C32.041 39.8909 32.1452 39.7121 32.1452 39.5014C32.1452 39.331 32.0813 39.1877 31.9535 39.0717C31.828 38.9557 31.635 38.8681 31.3746 38.8089L30.4513 38.6065C29.9423 38.4905 29.5659 38.3059 29.3221 38.0526C29.0806 37.7992 28.9598 37.4785 28.9598 37.0902C28.9598 36.7682 29.0498 36.4865 29.2297 36.245C29.4097 36.0036 29.6582 35.8153 29.9755 35.6804C30.2927 35.5431 30.6561 35.4744 31.0657 35.4744C31.6552 35.4744 32.1192 35.6023 32.4577 35.858C32.7963 36.1113 33.02 36.451 33.1289 36.8771ZM35.9902 41.1207C35.6446 41.1207 35.3321 41.0568 35.0527 40.929C34.7734 40.7988 34.552 40.6106 34.3886 40.3643C34.2277 40.1181 34.1472 39.8163 34.1472 39.4588C34.1472 39.151 34.2064 38.8977 34.3247 38.6989C34.4431 38.5 34.6029 38.3426 34.8041 38.2266C35.0054 38.1106 35.2303 38.023 35.4788 37.9638C35.7274 37.9046 35.9807 37.8596 36.2388 37.8288C36.5655 37.791 36.8306 37.7602 37.0342 37.7365C37.2378 37.7105 37.3858 37.669 37.4781 37.6122C37.5705 37.5554 37.6166 37.4631 37.6166 37.3352V37.3104C37.6166 37.0002 37.529 36.7599 37.3538 36.5895C37.181 36.419 36.923 36.3338 36.5797 36.3338C36.2222 36.3338 35.9405 36.4131 35.7345 36.5717C35.5309 36.728 35.3901 36.902 35.3119 37.0938L34.3141 36.8665C34.4324 36.535 34.6053 36.2675 34.8325 36.0639C35.0622 35.858 35.3261 35.7088 35.6244 35.6165C35.9227 35.5218 36.2364 35.4744 36.5655 35.4744C36.7833 35.4744 37.0141 35.5005 37.258 35.5526C37.5042 35.6023 37.7338 35.6946 37.9469 35.8295C38.1623 35.9645 38.3387 36.1574 38.476 36.4084C38.6133 36.657 38.682 36.9801 38.682 37.3778V41H37.645V40.2543H37.6024C37.5338 40.3916 37.4308 40.5265 37.2935 40.6591C37.1562 40.7917 36.9798 40.9018 36.7644 40.9893C36.5489 41.0769 36.2909 41.1207 35.9902 41.1207ZM36.221 40.2685C36.5146 40.2685 36.7655 40.2105 36.9739 40.0945C37.1846 39.9785 37.3444 39.8269 37.4533 39.6399C37.5645 39.4505 37.6202 39.2481 37.6202 39.0327V38.3295C37.5823 38.3674 37.5089 38.4029 37.4 38.4361C37.2935 38.4669 37.1716 38.4941 37.0342 38.5178C36.8969 38.5391 36.7632 38.5592 36.633 38.5781C36.5028 38.5947 36.3939 38.6089 36.3063 38.6207C36.1003 38.6468 35.9121 38.6906 35.7416 38.7521C35.5735 38.8137 35.4386 38.9025 35.3368 39.0185C35.2374 39.1321 35.1877 39.2836 35.1877 39.473C35.1877 39.7358 35.2847 39.9347 35.4788 40.0696C35.673 40.2022 35.9204 40.2685 36.221 40.2685ZM41.158 33.7273V41H40.0962V33.7273H41.158ZM44.9373 41.1101C44.3999 41.1101 43.9371 40.9953 43.5488 40.7656C43.1629 40.5336 42.8646 40.2081 42.6539 39.7891C42.4456 39.3677 42.3414 38.8741 42.3414 38.3082C42.3414 37.7495 42.4456 37.2571 42.6539 36.831C42.8646 36.4048 43.1582 36.0722 43.5346 35.8331C43.9134 35.594 44.3561 35.4744 44.8627 35.4744C45.1705 35.4744 45.4688 35.5253 45.7576 35.6271C46.0464 35.7289 46.3057 35.8887 46.5353 36.1065C46.7649 36.3243 46.9461 36.6072 47.0786 36.9553C47.2112 37.3009 47.2775 37.7211 47.2775 38.2159V38.5923H42.9416V37.7969H46.237C46.237 37.5175 46.1802 37.2701 46.0666 37.0547C45.9529 36.8369 45.7931 36.6652 45.5872 36.5398C45.3836 36.4143 45.1444 36.3516 44.8698 36.3516C44.5715 36.3516 44.3111 36.425 44.0886 36.5717C43.8684 36.7161 43.6979 36.9055 43.5772 37.1399C43.4588 37.3719 43.3997 37.6241 43.3997 37.8963V38.5178C43.3997 38.8823 43.4636 39.1925 43.5914 39.4482C43.7216 39.7038 43.9027 39.8991 44.1347 40.0341C44.3667 40.1667 44.6378 40.233 44.9479 40.233C45.1492 40.233 45.3327 40.2045 45.4984 40.1477C45.6641 40.0885 45.8073 40.0009 45.9281 39.8849C46.0488 39.7689 46.1411 39.6257 46.2051 39.4553L47.21 39.6364C47.1295 39.9323 46.9851 40.1915 46.7768 40.4141C46.5708 40.6342 46.3116 40.8059 45.9991 40.929C45.689 41.0497 45.335 41.1101 44.9373 41.1101ZM52.5429 36.8771L51.5806 37.0476C51.5403 36.9245 51.4764 36.8073 51.3888 36.696C51.3036 36.5848 51.1876 36.4936 51.0408 36.4226C50.894 36.3516 50.7106 36.3161 50.4904 36.3161C50.1897 36.3161 49.9388 36.3835 49.7375 36.5185C49.5363 36.651 49.4357 36.8227 49.4357 37.0334C49.4357 37.2157 49.5032 37.3625 49.6381 37.4737C49.7731 37.585 49.9909 37.6761 50.2915 37.7472L51.158 37.946C51.6599 38.062 52.0339 38.2408 52.2802 38.4822C52.5264 38.7237 52.6495 39.0374 52.6495 39.4233C52.6495 39.75 52.5548 40.0412 52.3654 40.2969C52.1784 40.5502 51.9168 40.7491 51.5806 40.8935C51.2468 41.0379 50.8597 41.1101 50.4194 41.1101C49.8086 41.1101 49.3102 40.9799 48.9243 40.7195C48.5384 40.4567 48.3017 40.0838 48.2141 39.6009L49.2404 39.4446C49.3043 39.7121 49.4357 39.9145 49.6346 40.0518C49.8334 40.1868 50.0927 40.2543 50.4123 40.2543C50.7603 40.2543 51.0384 40.1821 51.2468 40.0376C51.4551 39.8909 51.5593 39.7121 51.5593 39.5014C51.5593 39.331 51.4954 39.1877 51.3675 39.0717C51.242 38.9557 51.0491 38.8681 50.7887 38.8089L49.8654 38.6065C49.3564 38.4905 48.98 38.3059 48.7361 38.0526C48.4946 37.7992 48.3739 37.4785 48.3739 37.0902C48.3739 36.7682 48.4639 36.4865 48.6438 36.245C48.8237 36.0036 49.0723 35.8153 49.3895 35.6804C49.7068 35.5431 50.0702 35.4744 50.4797 35.4744C51.0692 35.4744 51.5332 35.6023 51.8718 35.858C52.2103 36.1113 52.434 36.451 52.5429 36.8771Z" fill="#FCF2D9"/>
</svg>
