<svg width="39" height="53" viewBox="0 0 39 53" fill="none" xmlns="http://www.w3.org/2000/svg">
<path d="M6.04138 43.7273H7.37306L9.6884 49.3807H9.77363L12.089 43.7273H13.4206V51H12.3766V45.7372H12.3091L10.1643 50.9893H9.29778L7.15289 45.7337H7.08542V51H6.04138V43.7273ZM17.2816 51.1101C16.7442 51.1101 16.2814 50.9953 15.8931 50.7656C15.5072 50.5336 15.2089 50.2081 14.9982 49.7891C14.7899 49.3677 14.6857 48.8741 14.6857 48.3082C14.6857 47.7495 14.7899 47.2571 14.9982 46.831C15.2089 46.4048 15.5025 46.0722 15.8789 45.8331C16.2577 45.594 16.7004 45.4744 17.207 45.4744C17.5148 45.4744 17.8131 45.5253 18.1019 45.6271C18.3908 45.7289 18.65 45.8887 18.8796 46.1065C19.1093 46.3243 19.2904 46.6072 19.423 46.9553C19.5555 47.3009 19.6218 47.7211 19.6218 48.2159V48.5923H15.2859V47.7969H18.5813C18.5813 47.5175 18.5245 47.2701 18.4109 47.0547C18.2972 46.8369 18.1374 46.6652 17.9315 46.5398C17.7279 46.4143 17.4888 46.3516 17.2141 46.3516C16.9159 46.3516 16.6554 46.425 16.4329 46.5717C16.2127 46.7161 16.0423 46.9055 15.9215 47.1399C15.8032 47.3719 15.744 47.6241 15.744 47.8963V48.5178C15.744 48.8823 15.8079 49.1925 15.9357 49.4482C16.0659 49.7038 16.2471 49.8991 16.4791 50.0341C16.7111 50.1667 16.9821 50.233 17.2923 50.233C17.4935 50.233 17.677 50.2045 17.8427 50.1477C18.0084 50.0885 18.1516 50.0009 18.2724 49.8849C18.3931 49.7689 18.4855 49.6257 18.5494 49.4553L19.5543 49.6364C19.4739 49.9323 19.3294 50.1915 19.1211 50.4141C18.9151 50.6342 18.6559 50.8059 18.3434 50.929C18.0333 51.0497 17.6793 51.1101 17.2816 51.1101ZM21.8617 47.7614V51H20.7999V45.5455H21.8191V46.4332H21.8866C22.012 46.1444 22.2085 45.9124 22.476 45.7372C22.7459 45.562 23.0857 45.4744 23.4952 45.4744C23.8669 45.4744 24.1924 45.5526 24.4718 45.7088C24.7511 45.8627 24.9678 46.0923 25.1216 46.3977C25.2755 46.7031 25.3525 47.0807 25.3525 47.5305V51H24.2907V47.6584C24.2907 47.263 24.1877 46.9541 23.9817 46.7315C23.7758 46.5066 23.4929 46.3942 23.133 46.3942C22.8868 46.3942 22.6678 46.4474 22.476 46.554C22.2867 46.6605 22.1363 46.8168 22.025 47.0227C21.9161 47.2263 21.8617 47.4725 21.8617 47.7614ZM30.2317 48.7379V45.5455H31.2971V51H30.253V50.0554H30.1962C30.0707 50.3466 29.8695 50.5893 29.5925 50.7834C29.3179 50.9751 28.9758 51.071 28.5662 51.071C28.2159 51.071 27.9057 50.9941 27.6358 50.8402C27.3683 50.6839 27.1576 50.4531 27.0037 50.1477C26.8522 49.8423 26.7765 49.4647 26.7765 49.0149V45.5455H27.8383V48.8871C27.8383 49.2588 27.9412 49.5547 28.1472 49.7749C28.3532 49.995 28.6207 50.1051 28.9498 50.1051C29.1486 50.1051 29.3463 50.0554 29.5428 49.956C29.7417 49.8565 29.9062 49.7062 30.0364 49.505C30.169 49.3037 30.2341 49.0481 30.2317 48.7379Z" fill="#FCF2D9"/>
<path d="M6.39209 26.8308H31.9622V32.4583H6.39209V26.8308ZM6.39209 26.8308H31.9622V17.7781C31.9622 17.7726 31.958 17.7681 31.9528 17.7681H6.40146C6.39629 17.7681 6.39209 17.7726 6.39209 17.7781V26.8308ZM24.7189 8.54163C26.2673 8.54163 27.5226 9.88011 27.5226 11.5312L27.513 11.2972L27.5707 11.2807C30.028 12.1684 31.8211 14.5669 31.9542 17.4259L31.9609 17.7484L31.9622 17.7581C31.9622 17.7636 31.958 17.7681 31.9528 17.7681H6.45544C6.45026 17.7681 6.44607 17.7636 6.44607 17.7581C6.44607 17.7537 6.44877 17.7498 6.45273 17.7485L18.5042 13.8507L22.1721 12.7831C22.0071 12.4023 21.9151 11.9782 21.9151 11.5312C21.9151 9.88011 23.1704 8.54163 24.7189 8.54163ZM24.7189 14.5208C26.2673 14.5208 27.5226 13.1823 27.5226 11.5312C27.5226 9.88011 26.2673 8.54163 24.7189 8.54163C23.1704 8.54163 21.9151 9.88011 21.9151 11.5312C21.9151 13.1823 23.1704 14.5208 24.7189 14.5208Z" stroke="#FCF2D9" stroke-width="1.55963" stroke-linejoin="round"/>
</svg>
